<svg xmlns="http://www.w3.org/2000/svg" xmlns:xlink="http://www.w3.org/1999/xlink" width="500" zoomAndPan="magnify" viewBox="0 0 375 225" height="300" preserveAspectRatio="xMidYMid meet" version="1.0"><defs><g/><clipPath id="b37af56d16"><path d="M 112.539062 63.96875 L 178.734375 63.96875 L 178.734375 120.800781 L 112.539062 120.800781 Z M 112.539062 63.96875 " clip-rule="nonzero"/></clipPath><clipPath id="cce7168a55"><path d="M 175.910156 111.25 L 187.765625 111.25 L 187.765625 120.800781 L 175.910156 120.800781 Z M 175.910156 111.25 " clip-rule="nonzero"/></clipPath><clipPath id="541b33e7e4"><path d="M 196.375 63.96875 L 262.535156 63.96875 L 262.535156 120.800781 L 196.375 120.800781 Z M 196.375 63.96875 " clip-rule="nonzero"/></clipPath><clipPath id="300238c9ee"><path d="M 187.34375 111.25 L 199.199219 111.25 L 199.199219 120.800781 L 187.34375 120.800781 Z M 187.34375 111.25 " clip-rule="nonzero"/></clipPath><clipPath id="45a7620285"><path d="M 202 7.601562 L 216 7.601562 L 216 21 L 202 21 Z M 202 7.601562 " clip-rule="nonzero"/></clipPath></defs><g clip-path="url(#b37af56d16)"><path fill="#5e17eb" d="M 178.265625 120.253906 C 178.242188 120.246094 178.226562 120.238281 178.21875 120.238281 C 178.226562 120.242188 178.242188 120.25 178.261719 120.257812 C 178.203125 120.4375 178.144531 120.621094 178.089844 120.800781 C 177.375 120.589844 176.65625 120.386719 175.9375 120.191406 C 155.542969 114.578125 133.910156 113.457031 112.539062 117.054688 C 116.425781 103.390625 120.316406 89.730469 124.203125 76.066406 C 125.859375 70.246094 130.464844 65.734375 136.316406 64.183594 C 136.582031 64.113281 136.851562 64.042969 137.121094 63.976562 C 132.117188 79.207031 127.109375 94.4375 122.105469 109.667969 C 138.882812 107.527344 163.316406 111.375 176.710938 118.171875 C 177.398438 118.519531 178.058594 118.875 178.683594 119.238281 C 178.523438 119.566406 178.382812 119.90625 178.265625 120.253906 " fill-opacity="1" fill-rule="nonzero"/></g><path fill="#8c52ff" d="M 153.675781 54.804688 C 153.574219 54.824219 153.476562 54.847656 153.375 54.867188 C 147.457031 56.167969 142.671875 60.507812 140.785156 66.265625 C 136.5 79.34375 132.453125 91.675781 128.03125 105.164062 C 158.085938 103.761719 174.714844 114.410156 174.714844 114.410156 C 159.574219 101.078125 136.835938 101.132812 136.835938 101.132812 C 136.835938 101.132812 148.074219 69.824219 153.675781 54.804688 " fill-opacity="1" fill-rule="nonzero"/><path fill="#ffde59" d="M 169.632812 47.601562 C 169.597656 47.609375 169.5625 47.617188 169.53125 47.625 C 163.609375 48.90625 158.828125 53.265625 156.941406 59.019531 C 152.761719 71.765625 148.816406 83.800781 144.503906 96.953125 C 167.097656 99.890625 176.617188 113.542969 176.617188 113.542969 C 171.945312 99.800781 152.730469 94.320312 152.730469 94.320312 C 152.730469 94.320312 164.144531 62.324219 169.632812 47.601562 " fill-opacity="1" fill-rule="nonzero"/><g clip-path="url(#cce7168a55)"><path fill="#5e17eb" d="M 187.667969 111.324219 C 182.855469 111.324219 178.691406 114.117188 176.710938 118.171875 C 176.523438 118.554688 176.355469 118.949219 176.207031 119.355469 C 176.109375 119.628906 176.019531 119.910156 175.9375 120.191406 C 176.65625 120.386719 177.375 120.589844 178.089844 120.800781 C 178.144531 120.621094 178.203125 120.4375 178.261719 120.257812 L 178.265625 120.253906 C 178.382812 119.90625 178.523438 119.566406 178.683594 119.238281 C 180.277344 115.882812 183.703125 113.558594 187.667969 113.558594 L 187.667969 111.324219 " fill-opacity="1" fill-rule="nonzero"/></g><path fill="#ffde59" d="M 201.273438 49.496094 C 208.816406 41.238281 211.949219 31.847656 210.207031 18.867188 C 214.898438 31.050781 215.089844 44.519531 206.304688 55.324219 C 191.375 73.679688 164.183594 76.320312 163.035156 97.710938 C 159.242188 72.203125 185.359375 66.910156 201.273438 49.496094 " fill-opacity="1" fill-rule="nonzero"/><path fill="#8c52ff" d="M 178.714844 41.800781 C 178.714844 46.917969 182.253906 51.0625 186.625 51.0625 C 190.992188 51.0625 194.535156 46.917969 194.535156 41.800781 C 194.535156 36.6875 190.992188 32.542969 186.625 32.542969 C 182.253906 32.542969 178.714844 36.6875 178.714844 41.800781 " fill-opacity="1" fill-rule="nonzero"/><g clip-path="url(#541b33e7e4)"><path fill="#5e17eb" d="M 196.8125 120.253906 C 196.832031 120.246094 196.847656 120.238281 196.859375 120.238281 C 196.851562 120.242188 196.835938 120.25 196.8125 120.257812 C 196.875 120.4375 196.933594 120.621094 196.984375 120.800781 C 197.703125 120.589844 198.417969 120.386719 199.140625 120.191406 C 219.53125 114.578125 241.167969 113.457031 262.535156 117.054688 C 258.648438 103.390625 254.761719 89.730469 250.875 76.066406 C 249.21875 70.246094 244.613281 65.734375 238.761719 64.183594 C 238.492188 64.113281 238.222656 64.042969 237.953125 63.976562 C 242.960938 79.207031 247.964844 94.4375 252.972656 109.667969 C 236.195312 107.527344 211.757812 111.375 198.367188 118.171875 C 197.675781 118.519531 197.019531 118.875 196.394531 119.238281 C 196.554688 119.566406 196.691406 119.90625 196.8125 120.253906 " fill-opacity="1" fill-rule="nonzero"/></g><path fill="#8c52ff" d="M 221.398438 54.804688 C 221.5 54.824219 221.601562 54.847656 221.703125 54.867188 C 227.621094 56.167969 232.402344 60.507812 234.292969 66.265625 C 238.578125 79.34375 242.625 91.675781 247.042969 105.164062 C 216.992188 103.761719 200.363281 114.410156 200.363281 114.410156 C 215.503906 101.078125 238.242188 101.132812 238.242188 101.132812 C 238.242188 101.132812 227.003906 69.824219 221.398438 54.804688 " fill-opacity="1" fill-rule="nonzero"/><path fill="#ffde59" d="M 198.351562 113.542969 C 198.351562 113.542969 207.871094 99.890625 230.464844 96.953125 C 226.207031 83.972656 222.308594 72.082031 218.191406 59.519531 C 216.542969 62.007812 214.492188 64.242188 212.125 66.167969 C 217.144531 80.039062 222.238281 94.320312 222.238281 94.320312 C 222.238281 94.320312 203.023438 99.800781 198.351562 113.542969 " fill-opacity="1" fill-rule="nonzero"/><g clip-path="url(#300238c9ee)"><path fill="#5e17eb" d="M 187.410156 113.558594 C 191.375 113.558594 194.796875 115.882812 196.394531 119.238281 C 196.554688 119.566406 196.691406 119.90625 196.8125 120.253906 L 196.8125 120.257812 C 196.875 120.4375 196.933594 120.621094 196.984375 120.800781 C 197.703125 120.589844 198.417969 120.386719 199.140625 120.191406 C 199.058594 119.910156 198.96875 119.628906 198.871094 119.355469 C 198.722656 118.949219 198.554688 118.554688 198.367188 118.171875 C 196.386719 114.117188 192.222656 111.324219 187.410156 111.324219 L 187.410156 113.558594 " fill-opacity="1" fill-rule="nonzero"/></g><path fill="#8c52ff" d="M 206.050781 69.054688 C 213.144531 65.015625 218.574219 58.707031 220.574219 50.90625 C 221.132812 61.199219 216.015625 70.253906 207.785156 75.835938 C 193.878906 85.257812 173.660156 85.285156 165.933594 98.648438 C 169.105469 81.308594 190.800781 77.742188 206.050781 69.054688 " fill-opacity="1" fill-rule="nonzero"/><g clip-path="url(#45a7620285)"><path fill="#ffde59" d="M 202.882812 9.757812 C 207.433594 13.746094 207.621094 14.664062 204.992188 20.113281 C 208.980469 15.5625 209.898438 15.375 215.347656 18.007812 C 210.796875 14.015625 210.609375 13.101562 213.242188 7.648438 C 209.25 12.199219 208.335938 12.386719 202.882812 9.757812 " fill-opacity="1" fill-rule="nonzero"/></g><path fill="#ffde59" d="M 221.75 29.753906 C 223.316406 29.96875 223.488281 30.140625 223.703125 31.707031 C 223.917969 30.140625 224.089844 29.96875 225.65625 29.753906 C 224.089844 29.542969 223.917969 29.367188 223.703125 27.800781 C 223.488281 29.367188 223.316406 29.539062 221.75 29.753906 " fill-opacity="1" fill-rule="nonzero"/><path fill="#ffde59" d="M 194.378906 28.566406 C 197.566406 29.003906 197.917969 29.355469 198.351562 32.542969 C 198.785156 29.355469 199.136719 29.003906 202.324219 28.570312 C 199.136719 28.136719 198.785156 27.785156 198.355469 24.597656 C 197.917969 27.785156 197.566406 28.136719 194.378906 28.566406 " fill-opacity="1" fill-rule="nonzero"/><g fill="#5e17eb" fill-opacity="1"><g transform="translate(94.013656, 182.268863)"><g><path d="M 2.328125 0 L 2.328125 -36.125 L 8.984375 -36.125 L 8.984375 0 Z M 2.328125 0 "/></g></g></g><g fill="#5e17eb" fill-opacity="1"><g transform="translate(105.504304, 182.268863)"><g><path d="M 23.046875 -13.484375 L 23.046875 -36.125 L 29.75 -36.125 L 29.75 -2.390625 L 24.40625 1.03125 L 8.984375 -22.875 L 8.984375 0 L 2.28125 0 L 2.28125 -33.734375 L 7.96875 -37.15625 Z M 23.046875 -13.484375 "/></g></g></g><g fill="#5e17eb" fill-opacity="1"><g transform="translate(137.587122, 182.268863)"><g><path d="M 28.734375 -5.6875 C 26.910156 -3.414062 24.925781 -1.8125 22.78125 -0.875 C 20.644531 0.0507812 18.4375 0.515625 16.15625 0.515625 C 13.800781 0.515625 11.722656 0.015625 9.921875 -0.984375 C 8.117188 -1.992188 6.609375 -3.351562 5.390625 -5.0625 C 4.179688 -6.769531 3.253906 -8.742188 2.609375 -10.984375 C 1.972656 -13.222656 1.65625 -15.570312 1.65625 -18.03125 C 1.65625 -20.539062 1.972656 -22.910156 2.609375 -25.140625 C 3.253906 -27.378906 4.179688 -29.351562 5.390625 -31.0625 C 6.609375 -32.769531 8.117188 -34.125 9.921875 -35.125 C 11.722656 -36.132812 13.800781 -36.640625 16.15625 -36.640625 C 18.65625 -36.640625 21.039062 -36.019531 23.3125 -34.78125 C 25.59375 -33.550781 27.664062 -31.835938 29.53125 -29.640625 L 23.890625 -25.9375 C 22.753906 -27.1875 21.519531 -28.160156 20.1875 -28.859375 C 18.863281 -29.566406 17.519531 -29.921875 16.15625 -29.921875 C 14.75 -29.921875 13.550781 -29.597656 12.5625 -28.953125 C 11.582031 -28.304688 10.78125 -27.441406 10.15625 -26.359375 C 9.53125 -25.285156 9.070312 -24.023438 8.78125 -22.578125 C 8.5 -21.140625 8.359375 -19.625 8.359375 -18.03125 C 8.359375 -16.4375 8.5 -14.925781 8.78125 -13.5 C 9.070312 -12.082031 9.53125 -10.820312 10.15625 -9.71875 C 10.78125 -8.625 11.582031 -7.753906 12.5625 -7.109375 C 13.550781 -6.460938 14.75 -6.140625 16.15625 -6.140625 C 18.507812 -6.140625 20.519531 -6.878906 22.1875 -8.359375 L 22.1875 -13.703125 L 14.5625 -13.703125 L 14.5625 -20.359375 L 28.90625 -20.359375 Z M 28.734375 -5.6875 "/></g></g></g><g fill="#5e17eb" fill-opacity="1"><g transform="translate(168.759789, 182.268863)"><g><path d="M 1.65625 -18.3125 C 1.65625 -20.820312 1.972656 -23.1875 2.609375 -25.40625 C 3.253906 -27.625 4.179688 -29.566406 5.390625 -31.234375 C 6.609375 -32.898438 8.117188 -34.21875 9.921875 -35.1875 C 11.722656 -36.15625 13.800781 -36.640625 16.15625 -36.640625 C 18.46875 -36.640625 20.535156 -36.15625 22.359375 -35.1875 C 24.179688 -34.21875 25.695312 -32.898438 26.90625 -31.234375 C 28.125 -29.566406 29.054688 -27.625 29.703125 -25.40625 C 30.347656 -23.1875 30.671875 -20.820312 30.671875 -18.3125 C 30.671875 -15.8125 30.347656 -13.429688 29.703125 -11.171875 C 29.054688 -8.921875 28.125 -6.921875 26.90625 -5.171875 C 25.695312 -3.429688 24.179688 -2.046875 22.359375 -1.015625 C 20.535156 0.00390625 18.46875 0.515625 16.15625 0.515625 C 13.800781 0.515625 11.722656 0.00390625 9.921875 -1.015625 C 8.117188 -2.046875 6.609375 -3.429688 5.390625 -5.171875 C 4.179688 -6.921875 3.253906 -8.921875 2.609375 -11.171875 C 1.972656 -13.429688 1.65625 -15.8125 1.65625 -18.3125 Z M 8.3125 -18.3125 C 8.3125 -16.71875 8.453125 -15.191406 8.734375 -13.734375 C 9.015625 -12.273438 9.46875 -10.976562 10.09375 -9.84375 C 10.71875 -8.707031 11.53125 -7.804688 12.53125 -7.140625 C 13.539062 -6.472656 14.75 -6.140625 16.15625 -6.140625 C 17.519531 -6.140625 18.703125 -6.472656 19.703125 -7.140625 C 20.710938 -7.804688 21.53125 -8.707031 22.15625 -9.84375 C 22.78125 -10.976562 23.242188 -12.273438 23.546875 -13.734375 C 23.859375 -15.191406 24.015625 -16.71875 24.015625 -18.3125 C 24.015625 -19.875 23.859375 -21.351562 23.546875 -22.75 C 23.242188 -24.15625 22.78125 -25.390625 22.15625 -26.453125 C 21.53125 -27.515625 20.710938 -28.359375 19.703125 -28.984375 C 18.703125 -29.609375 17.519531 -29.921875 16.15625 -29.921875 C 14.75 -29.921875 13.539062 -29.609375 12.53125 -28.984375 C 11.53125 -28.359375 10.71875 -27.515625 10.09375 -26.453125 C 9.46875 -25.390625 9.015625 -24.15625 8.734375 -22.75 C 8.453125 -21.351562 8.3125 -19.875 8.3125 -18.3125 Z M 8.3125 -18.3125 "/></g></g></g><g fill="#5e17eb" fill-opacity="1"><g transform="translate(201.070137, 182.268863)"><g><path d="M 13.59375 -6.140625 C 14.625 -6.140625 15.453125 -6.265625 16.078125 -6.515625 C 16.703125 -6.765625 17.179688 -7.132812 17.515625 -7.625 C 17.859375 -8.113281 18.078125 -8.691406 18.171875 -9.359375 C 18.265625 -10.023438 18.3125 -10.789062 18.3125 -11.65625 L 18.3125 -36.125 L 24.96875 -36.125 L 24.96875 -11.65625 C 24.96875 -10.332031 24.804688 -8.957031 24.484375 -7.53125 C 24.171875 -6.113281 23.585938 -4.804688 22.734375 -3.609375 C 21.878906 -2.421875 20.710938 -1.4375 19.234375 -0.65625 C 17.753906 0.125 15.875 0.515625 13.59375 0.515625 C 11.320312 0.515625 9.445312 0.125 7.96875 -0.65625 C 6.488281 -1.4375 5.320312 -2.421875 4.46875 -3.609375 C 3.613281 -4.804688 3.015625 -6.113281 2.671875 -7.53125 C 2.328125 -8.957031 2.15625 -10.332031 2.15625 -11.65625 L 2.15625 -36.125 L 8.8125 -36.125 L 8.8125 -11.65625 C 8.8125 -10.789062 8.867188 -10.023438 8.984375 -9.359375 C 9.097656 -8.691406 9.328125 -8.113281 9.671875 -7.625 C 10.015625 -7.132812 10.5 -6.765625 11.125 -6.515625 C 11.75 -6.265625 12.570312 -6.140625 13.59375 -6.140625 Z M 13.59375 -6.140625 "/></g></g></g><g fill="#5e17eb" fill-opacity="1"><g transform="translate(228.204009, 182.268863)"><g><path d="M 2.328125 -36.125 L 12.125 -36.125 C 14.4375 -36.125 16.613281 -35.648438 18.65625 -34.703125 C 20.707031 -33.753906 22.488281 -32.460938 24 -30.828125 C 25.519531 -29.203125 26.71875 -27.289062 27.59375 -25.09375 C 28.46875 -22.894531 28.90625 -20.539062 28.90625 -18.03125 C 28.90625 -15.53125 28.46875 -13.1875 27.59375 -11 C 26.71875 -8.820312 25.519531 -6.914062 24 -5.28125 C 22.488281 -3.65625 20.707031 -2.367188 18.65625 -1.421875 C 16.613281 -0.472656 14.4375 0 12.125 0 L 2.328125 0 Z M 8.984375 -6.65625 L 12.125 -6.65625 C 13.519531 -6.65625 14.832031 -6.957031 16.0625 -7.5625 C 17.300781 -8.175781 18.375 -8.992188 19.28125 -10.015625 C 20.195312 -11.035156 20.921875 -12.238281 21.453125 -13.625 C 21.984375 -15.007812 22.25 -16.476562 22.25 -18.03125 C 22.25 -19.625 21.984375 -21.113281 21.453125 -22.5 C 20.921875 -23.882812 20.195312 -25.085938 19.28125 -26.109375 C 18.375 -27.140625 17.300781 -27.957031 16.0625 -28.5625 C 14.832031 -29.164062 13.519531 -29.46875 12.125 -29.46875 L 8.984375 -29.46875 Z M 8.984375 -6.65625 "/></g></g></g><g fill="#5e17eb" fill-opacity="1"><g transform="translate(258.523408, 182.268863)"><g><path d="M 2.328125 0 L 2.328125 -36.125 L 21.390625 -36.125 L 21.390625 -29.46875 L 8.984375 -29.46875 L 8.984375 -22.921875 L 20.078125 -22.921875 L 20.078125 -16.21875 L 8.984375 -16.21875 L 8.984375 -6.65625 L 21.390625 -6.65625 L 21.390625 0 Z M 2.328125 0 "/></g></g></g><g fill="#5e17eb" fill-opacity="1"><g transform="translate(110.933758, 211.091249)"><g><path d="M 1.546875 -7.921875 C 2.054688 -8.585938 2.953125 -8.921875 4.234375 -8.921875 C 5.515625 -8.921875 6.410156 -8.585938 6.921875 -7.921875 C 7.429688 -7.265625 7.6875 -6.082031 7.6875 -4.375 C 7.6875 -2.675781 7.429688 -1.492188 6.921875 -0.828125 C 6.410156 -0.171875 5.515625 0.15625 4.234375 0.15625 C 2.953125 0.15625 2.054688 -0.171875 1.546875 -0.828125 C 1.035156 -1.492188 0.78125 -2.675781 0.78125 -4.375 C 0.78125 -6.070312 1.035156 -7.253906 1.546875 -7.921875 Z M 6.03125 -7.140625 C 5.695312 -7.648438 5.097656 -7.90625 4.234375 -7.90625 C 3.367188 -7.90625 2.769531 -7.648438 2.4375 -7.140625 C 2.113281 -6.628906 1.953125 -5.707031 1.953125 -4.375 C 1.953125 -3.039062 2.113281 -2.117188 2.4375 -1.609375 C 2.769531 -1.097656 3.367188 -0.84375 4.234375 -0.84375 C 5.097656 -0.84375 5.695312 -1.097656 6.03125 -1.609375 C 6.363281 -2.117188 6.53125 -3.039062 6.53125 -4.375 C 6.53125 -5.707031 6.363281 -6.628906 6.03125 -7.140625 Z M 6.03125 -7.140625 "/></g></g></g><g fill="#5e17eb" fill-opacity="1"><g transform="translate(124.472336, 211.091249)"><g><path d="M 7.84375 -8.75 L 7.84375 -0.453125 C 7.84375 -0.148438 7.695312 0 7.40625 0 L 6.3125 0 C 6.09375 0 5.929688 -0.113281 5.828125 -0.34375 L 2.859375 -6.5625 C 2.585938 -7.164062 2.425781 -7.550781 2.375 -7.71875 L 2.171875 -7.71875 C 2.203125 -7.382812 2.21875 -7 2.21875 -6.5625 L 2.21875 0 L 1.09375 0 L 1.09375 -8.3125 C 1.09375 -8.601562 1.242188 -8.75 1.546875 -8.75 L 2.59375 -8.75 C 2.820312 -8.75 2.988281 -8.632812 3.09375 -8.40625 L 5.96875 -2.34375 C 6.007812 -2.257812 6.101562 -2.066406 6.25 -1.765625 C 6.394531 -1.472656 6.5 -1.242188 6.5625 -1.078125 L 6.78125 -1.078125 C 6.75 -1.546875 6.734375 -1.988281 6.734375 -2.40625 L 6.734375 -8.75 Z M 7.84375 -8.75 "/></g></g></g><g fill="#5e17eb" fill-opacity="1"><g transform="translate(138.485881, 211.091249)"><g><path d="M 2.1875 -8.75 L 2.1875 -1.78125 C 2.1875 -1.488281 2.253906 -1.273438 2.390625 -1.140625 C 2.523438 -1.003906 2.738281 -0.9375 3.03125 -0.9375 L 6.1875 -0.9375 L 6.234375 -0.078125 C 5.503906 -0.015625 4.375 0.015625 2.84375 0.015625 C 2.226562 0.015625 1.78125 -0.128906 1.5 -0.421875 C 1.21875 -0.722656 1.078125 -1.128906 1.078125 -1.640625 L 1.078125 -8.75 Z M 2.1875 -8.75 "/></g></g></g><g fill="#5e17eb" fill-opacity="1"><g transform="translate(150.074609, 211.091249)"><g><path d="M 2.21875 0 L 1.09375 0 L 1.09375 -8.75 L 2.21875 -8.75 Z M 2.21875 0 "/></g></g></g><g fill="#5e17eb" fill-opacity="1"><g transform="translate(158.463591, 211.091249)"><g><path d="M 7.84375 -8.75 L 7.84375 -0.453125 C 7.84375 -0.148438 7.695312 0 7.40625 0 L 6.3125 0 C 6.09375 0 5.929688 -0.113281 5.828125 -0.34375 L 2.859375 -6.5625 C 2.585938 -7.164062 2.425781 -7.550781 2.375 -7.71875 L 2.171875 -7.71875 C 2.203125 -7.382812 2.21875 -7 2.21875 -6.5625 L 2.21875 0 L 1.09375 0 L 1.09375 -8.3125 C 1.09375 -8.601562 1.242188 -8.75 1.546875 -8.75 L 2.59375 -8.75 C 2.820312 -8.75 2.988281 -8.632812 3.09375 -8.40625 L 5.96875 -2.34375 C 6.007812 -2.257812 6.101562 -2.066406 6.25 -1.765625 C 6.394531 -1.472656 6.5 -1.242188 6.5625 -1.078125 L 6.78125 -1.078125 C 6.75 -1.546875 6.734375 -1.988281 6.734375 -2.40625 L 6.734375 -8.75 Z M 7.84375 -8.75 "/></g></g></g><g fill="#5e17eb" fill-opacity="1"><g transform="translate(172.477138, 211.091249)"><g><path d="M 2.71875 -8.765625 C 4.4375 -8.765625 5.6875 -8.738281 6.46875 -8.6875 L 6.421875 -7.8125 L 2.90625 -7.8125 C 2.40625 -7.8125 2.15625 -7.53125 2.15625 -6.96875 L 2.15625 -5.078125 L 5.921875 -5.078125 L 5.921875 -4.171875 L 2.15625 -4.171875 L 2.15625 -1.78125 C 2.15625 -1.476562 2.210938 -1.257812 2.328125 -1.125 C 2.453125 -0.988281 2.644531 -0.921875 2.90625 -0.921875 L 6.421875 -0.921875 L 6.46875 -0.0625 C 5.6875 -0.0078125 4.4375 0.015625 2.71875 0.015625 C 2.195312 0.015625 1.785156 -0.117188 1.484375 -0.390625 C 1.179688 -0.671875 1.03125 -1.046875 1.03125 -1.515625 L 1.03125 -7.25 C 1.03125 -7.71875 1.179688 -8.085938 1.484375 -8.359375 C 1.785156 -8.628906 2.195312 -8.765625 2.71875 -8.765625 Z M 2.71875 -8.765625 "/></g></g></g><g fill="#5e17eb" fill-opacity="1"><g transform="translate(184.640822, 211.091249)"><g/></g></g><g fill="#5e17eb" fill-opacity="1"><g transform="translate(192.529844, 211.091249)"><g><path d="M 4.21875 -8.90625 C 5.082031 -8.90625 5.875 -8.820312 6.59375 -8.65625 L 6.484375 -7.796875 C 5.722656 -7.867188 4.96875 -7.90625 4.21875 -7.90625 C 3.351562 -7.90625 2.757812 -7.648438 2.4375 -7.140625 C 2.113281 -6.628906 1.953125 -5.707031 1.953125 -4.375 C 1.953125 -3.039062 2.113281 -2.117188 2.4375 -1.609375 C 2.757812 -1.097656 3.351562 -0.84375 4.21875 -0.84375 C 5.195312 -0.84375 6.007812 -0.882812 6.65625 -0.96875 L 6.78125 -0.140625 C 6.070312 0.0546875 5.21875 0.15625 4.21875 0.15625 C 2.945312 0.15625 2.054688 -0.179688 1.546875 -0.859375 C 1.035156 -1.535156 0.78125 -2.707031 0.78125 -4.375 C 0.78125 -6.039062 1.035156 -7.210938 1.546875 -7.890625 C 2.054688 -8.566406 2.945312 -8.90625 4.21875 -8.90625 Z M 4.21875 -8.90625 "/></g></g></g><g fill="#5e17eb" fill-opacity="1"><g transform="translate(204.831011, 211.091249)"><g><path d="M 1.546875 -7.921875 C 2.054688 -8.585938 2.953125 -8.921875 4.234375 -8.921875 C 5.515625 -8.921875 6.410156 -8.585938 6.921875 -7.921875 C 7.429688 -7.265625 7.6875 -6.082031 7.6875 -4.375 C 7.6875 -2.675781 7.429688 -1.492188 6.921875 -0.828125 C 6.410156 -0.171875 5.515625 0.15625 4.234375 0.15625 C 2.953125 0.15625 2.054688 -0.171875 1.546875 -0.828125 C 1.035156 -1.492188 0.78125 -2.675781 0.78125 -4.375 C 0.78125 -6.070312 1.035156 -7.253906 1.546875 -7.921875 Z M 6.03125 -7.140625 C 5.695312 -7.648438 5.097656 -7.90625 4.234375 -7.90625 C 3.367188 -7.90625 2.769531 -7.648438 2.4375 -7.140625 C 2.113281 -6.628906 1.953125 -5.707031 1.953125 -4.375 C 1.953125 -3.039062 2.113281 -2.117188 2.4375 -1.609375 C 2.769531 -1.097656 3.367188 -0.84375 4.234375 -0.84375 C 5.097656 -0.84375 5.695312 -1.097656 6.03125 -1.609375 C 6.363281 -2.117188 6.53125 -3.039062 6.53125 -4.375 C 6.53125 -5.707031 6.363281 -6.628906 6.03125 -7.140625 Z M 6.03125 -7.140625 "/></g></g></g><g fill="#5e17eb" fill-opacity="1"><g transform="translate(218.369589, 211.091249)"><g><path d="M 7.40625 -8.75 L 7.40625 -3.34375 C 7.40625 -2.070312 7.164062 -1.171875 6.6875 -0.640625 C 6.21875 -0.109375 5.414062 0.15625 4.28125 0.15625 C 3.09375 0.15625 2.253906 -0.109375 1.765625 -0.640625 C 1.273438 -1.171875 1.03125 -2.070312 1.03125 -3.34375 L 1.03125 -8.75 L 2.15625 -8.75 L 2.15625 -3.34375 C 2.15625 -2.414062 2.304688 -1.765625 2.609375 -1.390625 C 2.921875 -1.023438 3.457031 -0.84375 4.21875 -0.84375 C 4.988281 -0.84375 5.523438 -1.023438 5.828125 -1.390625 C 6.128906 -1.765625 6.28125 -2.414062 6.28125 -3.34375 L 6.28125 -8.75 Z M 7.40625 -8.75 "/></g></g></g><g fill="#5e17eb" fill-opacity="1"><g transform="translate(231.883179, 211.091249)"><g><path d="M 4.125 -8.859375 C 5.164062 -8.859375 5.894531 -8.675781 6.3125 -8.3125 C 6.738281 -7.957031 6.953125 -7.300781 6.953125 -6.34375 C 6.953125 -5.625 6.828125 -5.085938 6.578125 -4.734375 C 6.328125 -4.378906 5.914062 -4.164062 5.34375 -4.09375 L 5.34375 -4.03125 C 5.832031 -3.90625 6.191406 -3.484375 6.421875 -2.765625 L 7.28125 0 L 6.078125 0 L 5.296875 -2.734375 C 5.128906 -3.347656 4.742188 -3.65625 4.140625 -3.65625 C 3.835938 -3.65625 3.472656 -3.65625 3.046875 -3.65625 C 2.617188 -3.65625 2.34375 -3.65625 2.21875 -3.65625 L 2.21875 0 L 1.09375 0 L 1.09375 -8.75 C 1.8125 -8.820312 2.820312 -8.859375 4.125 -8.859375 Z M 4.09375 -7.90625 C 3.164062 -7.90625 2.539062 -7.898438 2.21875 -7.890625 L 2.21875 -4.609375 L 4.09375 -4.609375 C 4.75 -4.609375 5.203125 -4.722656 5.453125 -4.953125 C 5.703125 -5.191406 5.828125 -5.632812 5.828125 -6.28125 C 5.828125 -6.90625 5.703125 -7.332031 5.453125 -7.5625 C 5.210938 -7.789062 4.757812 -7.90625 4.09375 -7.90625 Z M 4.09375 -7.90625 "/></g></g></g><g fill="#5e17eb" fill-opacity="1"><g transform="translate(244.784299, 211.091249)"><g><path d="M 3.53125 -8.90625 C 4.445312 -8.90625 5.316406 -8.820312 6.140625 -8.65625 L 6.0625 -7.84375 C 5.25 -7.882812 4.425781 -7.90625 3.59375 -7.90625 C 3.289062 -7.90625 3.0625 -7.898438 2.90625 -7.890625 C 2.757812 -7.878906 2.597656 -7.847656 2.421875 -7.796875 C 2.253906 -7.753906 2.132812 -7.6875 2.0625 -7.59375 C 2 -7.5 1.941406 -7.367188 1.890625 -7.203125 C 1.847656 -7.046875 1.828125 -6.835938 1.828125 -6.578125 C 1.828125 -6.117188 1.910156 -5.785156 2.078125 -5.578125 C 2.242188 -5.378906 2.523438 -5.234375 2.921875 -5.140625 L 4.71875 -4.703125 C 5.363281 -4.535156 5.816406 -4.253906 6.078125 -3.859375 C 6.335938 -3.472656 6.46875 -2.929688 6.46875 -2.234375 C 6.46875 -1.265625 6.25 -0.625 5.8125 -0.3125 C 5.382812 0 4.625 0.15625 3.53125 0.15625 C 2.613281 0.15625 1.710938 0.0703125 0.828125 -0.09375 L 0.90625 -0.90625 C 2.144531 -0.863281 3.035156 -0.84375 3.578125 -0.84375 C 4.273438 -0.851562 4.742188 -0.945312 4.984375 -1.125 C 5.222656 -1.300781 5.34375 -1.679688 5.34375 -2.265625 C 5.34375 -2.742188 5.257812 -3.078125 5.09375 -3.265625 C 4.925781 -3.453125 4.640625 -3.597656 4.234375 -3.703125 L 2.421875 -4.15625 C 1.796875 -4.3125 1.351562 -4.582031 1.09375 -4.96875 C 0.832031 -5.363281 0.703125 -5.90625 0.703125 -6.59375 C 0.703125 -7.101562 0.753906 -7.507812 0.859375 -7.8125 C 0.960938 -8.125 1.140625 -8.359375 1.390625 -8.515625 C 1.648438 -8.679688 1.9375 -8.785156 2.25 -8.828125 C 2.570312 -8.878906 3 -8.90625 3.53125 -8.90625 Z M 3.53125 -8.90625 "/></g></g></g><g fill="#5e17eb" fill-opacity="1"><g transform="translate(256.960481, 211.091249)"><g><path d="M 2.71875 -8.765625 C 4.4375 -8.765625 5.6875 -8.738281 6.46875 -8.6875 L 6.421875 -7.8125 L 2.90625 -7.8125 C 2.40625 -7.8125 2.15625 -7.53125 2.15625 -6.96875 L 2.15625 -5.078125 L 5.921875 -5.078125 L 5.921875 -4.171875 L 2.15625 -4.171875 L 2.15625 -1.78125 C 2.15625 -1.476562 2.210938 -1.257812 2.328125 -1.125 C 2.453125 -0.988281 2.644531 -0.921875 2.90625 -0.921875 L 6.421875 -0.921875 L 6.46875 -0.0625 C 5.6875 -0.0078125 4.4375 0.015625 2.71875 0.015625 C 2.195312 0.015625 1.785156 -0.117188 1.484375 -0.390625 C 1.179688 -0.671875 1.03125 -1.046875 1.03125 -1.515625 L 1.03125 -7.25 C 1.03125 -7.71875 1.179688 -8.085938 1.484375 -8.359375 C 1.785156 -8.628906 2.195312 -8.765625 2.71875 -8.765625 Z M 2.71875 -8.765625 "/></g></g></g></svg>